<svg width="110" height="13" viewBox="0 0 110 13" fill="none" xmlns="http://www.w3.org/2000/svg">
<path d="M0.28 12V0.639999H7.848V2.224H2.072V5.616H6.904V7.104H2.072V12H0.28ZM9.54563 12V0.639999H11.3376V12H9.54563ZM13.905 12V0.639999H18.849C19.361 0.639999 19.8303 0.746666 20.257 0.959999C20.6837 1.17333 21.0517 1.456 21.361 1.808C21.681 2.16 21.9263 2.55467 22.097 2.992C22.2783 3.42933 22.369 3.87733 22.369 4.336C22.369 4.83733 22.2783 5.31733 22.097 5.776C21.9157 6.23467 21.6543 6.62933 21.313 6.96C20.9823 7.29067 20.593 7.53067 20.145 7.68L22.817 12H20.801L18.337 8.048H15.697V12H13.905ZM15.697 6.464H18.833C19.1637 6.464 19.457 6.368 19.713 6.176C19.969 5.984 20.1717 5.728 20.321 5.408C20.4703 5.07733 20.545 4.72 20.545 4.336C20.545 3.94133 20.4597 3.58933 20.289 3.28C20.1183 2.96 19.8943 2.704 19.617 2.512C19.3503 2.32 19.057 2.224 18.737 2.224H15.697V6.464ZM32.2751 10.416V12H24.4831V0.639999H32.1311V2.224H26.2751V5.456H31.3471V6.944H26.2751V10.416H32.2751ZM34.1238 12V0.639999H41.6918V2.224H35.9158V5.616H40.7478V7.104H35.9158V12H34.1238ZM43.3894 12V0.639999H45.1814V12H43.3894ZM52.3888 12.08C51.6421 12.08 50.9434 11.9253 50.2928 11.616C49.6421 11.3067 49.0714 10.88 48.5807 10.336C48.1008 9.792 47.7221 9.17333 47.4448 8.48C47.1781 7.78667 47.0448 7.05067 47.0448 6.272C47.0448 5.49333 47.1781 4.76267 47.4448 4.08C47.7221 3.39733 48.1008 2.78933 48.5807 2.256C49.0714 1.72267 49.6421 1.30667 50.2928 1.008C50.9541 0.709333 51.6741 0.559999 52.4528 0.559999C53.5301 0.559999 54.4368 0.789333 55.1728 1.248C55.9194 1.696 56.4794 2.29333 56.8528 3.04L55.4768 4.032C55.1781 3.41333 54.7514 2.94933 54.1968 2.64C53.6528 2.33067 53.0554 2.176 52.4048 2.176C51.8714 2.176 51.3861 2.288 50.9488 2.512C50.5114 2.736 50.1328 3.04533 49.8128 3.44C49.5034 3.824 49.2688 4.26667 49.1088 4.768C48.9488 5.25867 48.8688 5.776 48.8688 6.32C48.8688 6.896 48.9594 7.43467 49.1408 7.936C49.3221 8.43733 49.5781 8.88 49.9088 9.264C50.2394 9.63733 50.6288 9.93067 51.0768 10.144C51.5248 10.3573 52.0101 10.464 52.5328 10.464C53.1514 10.464 53.7381 10.3093 54.2928 10C54.8581 9.68 55.3861 9.20533 55.8767 8.576V10.4C54.8848 11.52 53.7221 12.08 52.3888 12.08ZM55.7008 7.584H53.3168V6.256H57.2048V12H55.7008V7.584ZM68.5768 0.639999V12H66.7688V6.992H61.0408V12H59.2488V0.639999H61.0408V5.392H66.7688V0.639999H68.5768ZM79.4754 2.224H75.6994V12H73.8914V2.224H70.0994V0.639999H79.4754V2.224ZM88.7908 10.416V12H80.9988V0.639999H88.6468V2.224H82.7908V5.456H87.8628V6.944H82.7908V10.416H88.7908ZM90.6394 12V0.639999H95.5834C96.0954 0.639999 96.5647 0.746666 96.9914 0.959999C97.418 1.17333 97.786 1.456 98.0954 1.808C98.4154 2.16 98.6607 2.55467 98.8314 2.992C99.0127 3.42933 99.1034 3.87733 99.1034 4.336C99.1034 4.83733 99.0127 5.31733 98.8314 5.776C98.65 6.23467 98.3887 6.62933 98.0474 6.96C97.7167 7.29067 97.3274 7.53067 96.8794 7.68L99.5514 12H97.5354L95.0714 8.048H92.4314V12H90.6394ZM92.4314 6.464H95.5674C95.898 6.464 96.1914 6.368 96.4474 6.176C96.7034 5.984 96.906 5.728 97.0554 5.408C97.2047 5.07733 97.2794 4.72 97.2794 4.336C97.2794 3.94133 97.194 3.58933 97.0234 3.28C96.8527 2.96 96.6287 2.704 96.3514 2.512C96.0847 2.32 95.7914 2.224 95.4714 2.224H92.4314V6.464ZM107.938 3.312C107.831 3.19467 107.676 3.072 107.474 2.944C107.271 2.80533 107.031 2.67733 106.754 2.56C106.476 2.44267 106.178 2.34667 105.858 2.272C105.538 2.19733 105.207 2.16 104.866 2.16C104.119 2.16 103.564 2.29867 103.202 2.576C102.839 2.85333 102.658 3.23733 102.658 3.728C102.658 4.09067 102.759 4.37867 102.962 4.592C103.164 4.79467 103.474 4.96533 103.89 5.104C104.306 5.24267 104.828 5.392 105.458 5.552C106.226 5.73333 106.892 5.952 107.458 6.208C108.023 6.45333 108.455 6.784 108.753 7.2C109.052 7.616 109.202 8.16533 109.202 8.848C109.202 9.424 109.095 9.92 108.882 10.336C108.668 10.752 108.37 11.0933 107.986 11.36C107.602 11.616 107.159 11.808 106.658 11.936C106.156 12.0533 105.618 12.112 105.042 12.112C104.476 12.112 103.911 12.0533 103.346 11.936C102.791 11.8187 102.258 11.648 101.746 11.424C101.244 11.1893 100.78 10.9067 100.354 10.576L101.17 9.04C101.308 9.17867 101.506 9.33333 101.762 9.504C102.028 9.664 102.332 9.81867 102.674 9.968C103.026 10.1173 103.404 10.2453 103.81 10.352C104.226 10.448 104.647 10.496 105.074 10.496C105.788 10.496 106.332 10.3733 106.706 10.128C107.09 9.872 107.282 9.50933 107.282 9.04C107.282 8.656 107.159 8.352 106.914 8.128C106.668 7.89333 106.311 7.696 105.842 7.536C105.372 7.376 104.812 7.216 104.161 7.056C103.415 6.85333 102.791 6.63467 102.289 6.4C101.788 6.15467 101.41 5.84533 101.154 5.472C100.908 5.088 100.786 4.60267 100.786 4.016C100.786 3.26933 100.967 2.64 101.33 2.128C101.692 1.60533 102.183 1.216 102.802 0.959999C103.431 0.693333 104.135 0.559999 104.914 0.559999C105.426 0.559999 105.911 0.618666 106.37 0.735999C106.828 0.842666 107.255 0.992 107.65 1.184C108.055 1.376 108.423 1.59467 108.753 1.84L107.938 3.312Z" fill="white"/>
</svg>
